{
  "accessors": [
    {
      "bufferView": 2,
      "componentType": 5126,
      "count": 233,
      "max": [
        0.5320167541503906,
        0.19984589517116547,
        1.4648462533950806
      ],
      "min": [
        -0.5304519534111023,
        -0.10733304917812347,
        -0.27839240431785583
      ],
      "type": "VEC3"
    },
    {
      "bufferView": 2,
      "byteOffset": 2796,
      "componentType": 5126,
      "count": 233,
      "max": [
        1.0,
        1.0,
        1.0
      ],
      "min": [
        -1.0,
        -1.0,
        -1.0
      ],
      "type": "VEC3"
    },
    {
      "bufferView": 1,
      "componentType": 5126,
      "count": 233,
      "max": [
        0.9982509613037109,
        0.9995720386505127
      ],
      "min": [
        0.0008469820022583008,
        0.002755418885499239
      ],
      "type": "VEC2"
    },
    {
      "bufferView": 0,
      "componentType": 5125,
      "count": 414,
      "type": "SCALAR"
    },
    {
      "bufferView": 2,
      "byteOffset": 5592,
      "componentType": 5126,
      "count": 48,
      "max": [
        0.13806289434432983,
        0.0,
        0.1501481682062149
      ],
      "min": [
        -0.13806374371051788,
        -0.00930815376341343,
        0.0
      ],
      "type": "VEC3"
    },
    {
      "bufferView": 2,
      "byteOffset": 6168,
      "componentType": 5126,
      "count": 48,
      "max": [
        1.0,
        0.9990648031234741,
        1.0
      ],
      "min": [
        -1.0,
        -1.0,
        -1.0
      ],
      "type": "VEC3"
    },
    {
      "bufferView": 1,
      "byteOffset": 1864,
      "componentType": 5126,
      "count": 48,
      "max": [
        0.6356908679008484,
        0.744338870048523
      ],
      "min": [
        0.36387205123901367,
        0.5965331196784973
      ],
      "type": "VEC2"
    },
    {
      "bufferView": 0,
      "byteOffset": 1656,
      "componentType": 5125,
      "count": 96,
      "type": "SCALAR"
    },
    {
      "bufferView": 2,
      "byteOffset": 6744,
      "componentType": 5126,
      "count": 24,
      "max": [
        0.11531346291303635,
        0.008640890941023827,
        0.07351148873567581
      ],
      "min": [
        -0.11531346291303635,
        -0.008640890941023827,
        -0.07351148873567581
      ],
      "type": "VEC3"
    },
    {
      "bufferView": 2,
      "byteOffset": 7032,
      "componentType": 5126,
      "count": 24,
      "max": [
        1.0,
        1.0,
        1.0
      ],
      "min": [
        -1.0,
        -1.0,
        -1.0
      ],
      "type": "VEC3"
    },
    {
      "bufferView": 1,
      "byteOffset": 2248,
      "componentType": 5126,
      "count": 24,
      "max": [
        0.28367334604263306,
        0.21870608627796173
      ],
      "min": [
        0.007503288798034191,
        0.0049817971885204315
      ],
      "type": "VEC2"
    },
    {
      "bufferView": 0,
      "byteOffset": 2040,
      "componentType": 5125,
      "count": 36,
      "type": "SCALAR"
    },
    {
      "bufferView": 2,
      "byteOffset": 7320,
      "componentType": 5126,
      "count": 24,
      "max": [
        0.11531346291303635,
        0.008640890941023827,
        0.07351148873567581
      ],
      "min": [
        -0.11531346291303635,
        -0.008640890941023827,
        -0.07351148873567581
      ],
      "type": "VEC3"
    },
    {
      "bufferView": 2,
      "byteOffset": 7608,
      "componentType": 5126,
      "count": 24,
      "max": [
        1.0,
        1.0,
        1.0
      ],
      "min": [
        -1.0,
        -1.0,
        -1.0
      ],
      "type": "VEC3"
    },
    {
      "bufferView": 1,
      "byteOffset": 2440,
      "componentType": 5126,
      "count": 24,
      "max": [
        0.5736100077629089,
        0.21870608627796173
      ],
      "min": [
        0.2961456775665283,
        0.0049817971885204315
      ],
      "type": "VEC2"
    },
    {
      "bufferView": 0,
      "byteOffset": 2184,
      "componentType": 5125,
      "count": 36,
      "type": "SCALAR"
    }
  ],
  "asset": {
    "extras": {
      "author": "Drillimpact (https://sketchfab.com/Drillimpact)",
      "license": "CC-BY-4.0 (http://creativecommons.org/licenses/by/4.0/)",
      "source": "https://sketchfab.com/3d-models/low-poly-boombox-ps1ps2-style-d9f19a9ddce04dac8586b34869d0c1ba",
      "title": "Low Poly Boombox (PS1/PS2 Style)"
    },
    "generator": "Sketchfab-16.51.0",
    "version": "2.0"
  },
  "bufferViews": [
    {
      "buffer": 0,
      "byteLength": 2328,
      "name": "floatBufferViews",
      "target": 34963
    },
    {
      "buffer": 0,
      "byteLength": 2632,
      "byteOffset": 2328,
      "byteStride": 8,
      "name": "floatBufferViews",
      "target": 34962
    },
    {
      "buffer": 0,
      "byteLength": 7896,
      "byteOffset": 4960,
      "byteStride": 12,
      "name": "floatBufferViews",
      "target": 34962
    }
  ],
  "buffers": [
    {
      "byteLength": 12856,
      "uri": "scene.bin"
    }
  ],
  "extensionsUsed": [
    "KHR_materials_specular"
  ],
  "images": [
    {
      "uri": "textures/Material.001_baseColor.png"
    }
  ],
  "materials": [
    {
      "doubleSided": true,
      "extensions": {
        "KHR_materials_specular": {
          "specularColorFactor": [
            1.0,
            1.0,
            1.0
          ],
          "specularFactor": 0.0
        }
      },
      "name": "Material.001",
      "pbrMetallicRoughness": {
        "baseColorTexture": {
          "index": 0
        },
        "metallicFactor": 0.0
      }
    }
  ],
  "meshes": [
    {
      "name": "boombox_Material.001_0",
      "primitives": [
        {
          "attributes": {
            "NORMAL": 1,
            "POSITION": 0,
            "TEXCOORD_0": 2
          },
          "indices": 3,
          "material": 0,
          "mode": 4
        }
      ]
    },
    {
      "name": "boombox.003_Material.001_0",
      "primitives": [
        {
          "attributes": {
            "NORMAL": 5,
            "POSITION": 4,
            "TEXCOORD_0": 6
          },
          "indices": 7,
          "material": 0,
          "mode": 4
        }
      ]
    },
    {
      "name": "Cassette_tape_01_data.001_Material.001_0",
      "primitives": [
        {
          "attributes": {
            "NORMAL": 9,
            "POSITION": 8,
            "TEXCOORD_0": 10
          },
          "indices": 11,
          "material": 0,
          "mode": 4
        }
      ]
    },
    {
      "name": "Cassette_tape_02_data.001_Material.001_0",
      "primitives": [
        {
          "attributes": {
            "NORMAL": 13,
            "POSITION": 12,
            "TEXCOORD_0": 14
          },
          "indices": 15,
          "material": 0,
          "mode": 4
        }
      ]
    }
  ],
  "nodes": [
    {
      "children": [
        1
      ],
      "matrix": [
        1.0,
        0.0,
        0.0,
        0.0,
        0.0,
        2.220446049250313e-16,
        -1.0,
        0.0,
        0.0,
        1.0,
        2.220446049250313e-16,
        0.0,
        0.0,
        0.0,
        0.0,
        1.0
      ],
      "name": "Sketchfab_model"
    },
    {
      "children": [
        2
      ],
      "matrix": [
        0.009999999776482582,
        0.0,
        0.0,
        0.0,
        0.0,
        0.0,
        0.009999999776482582,
        0.0,
        0.0,
        -0.009999999776482582,
        0.0,
        0.0,
        0.0,
        0.0,
        0.0,
        1.0
      ],
      "name": "Boombox.fbx"
    },
    {
      "children": [
        3,
        7,
        9
      ],
      "name": "RootNode"
    },
    {
      "children": [
        4,
        5
      ],
      "matrix": [
        100.0,
        0.0,
        0.0,
        0.0,
        0.0,
        -1.629206793918314e-05,
        -99.99999999999868,
        0.0,
        0.0,
        99.99999999999868,
        -1.629206793918314e-05,
        0.0,
        0.0,
        27.839237213134766,
        0.0,
        1.0
      ],
      "name": "boombox"
    },
    {
      "mesh": 0,
      "name": "boombox_Material.001_0"
    },
    {
      "children": [
        6
      ],
      "matrix": [
        1.0,
        0.0,
        0.0,
        0.0,
        0.0,
        1.0,
        -2.646977960169688e-23,
        0.0,
        0.0,
        2.646977960169688e-23,
        1.0,
        0.0,
        -0.0015639066696166992,
        -0.09034326672554016,
        -0.10450007021427155,
        1.0
      ],
      "name": "boombox.003"
    },
    {
      "mesh": 1,
      "name": "boombox.003_Material.001_0"
    },
    {
      "children": [
        8
      ],
      "matrix": [
        73.87737489019837,
        -2.0335723801644992e-13,
        -67.39534073995205,
        0.0,
        1.0176413831635635e-05,
        -99.99999999999889,
        1.1155174107868228e-05,
        0.0,
        -67.39534073995127,
        -1.5099578572262598e-05,
        -73.87737489019756,
        0.0,
        -13.534111022949219,
        0.8640855550765991,
        27.53351593017578,
        1.0
      ],
      "name": "Cassette_tape_01_data.001"
    },
    {
      "mesh": 2,
      "name": "Cassette_tape_01_data.001_Material.001_0"
    },
    {
      "children": [
        10
      ],
      "matrix": [
        75.67749419825086,
        1.9122967137362848e-13,
        65.36755213310124,
        0.0,
        -9.870225516716868e-06,
        -99.99999999999886,
        1.1426983710186819e-05,
        0.0,
        65.36755213310047,
        -1.509957974460626e-05,
        -75.67749419825,
        0.0,
        16.904342651367188,
        0.8640855550765991,
        35.96923828125,
        1.0
      ],
      "name": "Cassette_tape_02_data.001"
    },
    {
      "mesh": 3,
      "name": "Cassette_tape_02_data.001_Material.001_0"
    }
  ],
  "samplers": [
    {
      "magFilter": 9728,
      "minFilter": 9986,
      "wrapS": 10497,
      "wrapT": 10497
    }
  ],
  "scene": 0,
  "scenes": [
    {
      "name": "Sketchfab_Scene",
      "nodes": [
        0
      ]
    }
  ],
  "textures": [
    {
      "sampler": 0,
      "source": 0
    }
  ]
}
